# xmcd CD database file
#
# Track frame offsets:
#	150
#	17442
#	32893
#	50091
#	69557
#	87142
#	98544
#	113956
#	129717
#	148532
#	172181
#	188403
#
# Disc length: 2837 seconds
#
# Revision: 0
# Processed by: cddbd v1.5.2PL0 Copyright (c) Steve Scherf et al.
# Submitted via: CDex 1.70beta2
#
DISCID=9f0b130c
DTITLE=Antonio Aguilar - Homenaje a Antonio Aguilar
DYEAR=1900
DGENRE=Country
TTITLE0=Morenita Mia
TTITLE1=Mi Caballo el Cantador
TTITLE2=El Chivo
TTITLE3=Valentin de la Sierra
TTITLE4=Albur de Amor
TTITLE5=Cuatro Meses
TTITLE6=El Corrido de Lucio Vazquez
TTITLE7=Echame a mi la Culpa
TTITLE8=Cruz de Olvido
TTITLE9=Miedo
TTITLE10=Un puño de Tierra
TTITLE11=Triste Recuerdo
EXTD=
EXTT0=
EXTT1=
EXTT2=
EXTT3=
EXTT4=
EXTT5=
EXTT6=
EXTT7=
EXTT8=
EXTT9=
EXTT10=
EXTT11=
PLAYORDER=
